<?xml version="1.0" encoding="UTF-8"?>
<svg version="1.1" xmlns="http://www.w3.org/2000/svg" width="520" height="180">
<path d="M0 0 C1.38251953 -0.0309375 1.38251953 -0.0309375 2.79296875 -0.0625 C13.86379428 -0.12495882 22.56040551 3.4148049 30.8125 10.75 C36.96762607 17.7844298 38.4559872 25.90778586 38.18359375 35.12109375 C37.87934056 38.64913607 37.06664127 41.89370994 36 45.25 C35.68160156 46.30316406 35.36320312 47.35632813 35.03515625 48.44140625 C32.23156946 57.04096034 28.36823312 63.99502386 23 71.25 C22.46632813 72.02085938 21.93265625 72.79171875 21.3828125 73.5859375 C20.92648438 74.13507813 20.47015625 74.68421875 20 75.25 C19.34 75.25 18.68 75.25 18 75.25 C18 75.91 18 76.57 18 77.25 C19.98 77.745 19.98 77.745 22 78.25 C20.63218625 85.26904426 18.49261049 91.6667292 15.875 98.3125 C15.50246094 99.27349609 15.12992187 100.23449219 14.74609375 101.22460938 C13.83644515 103.56870383 12.92101046 105.91035181 12 108.25 C8.12784227 108.51531374 6.22801024 108.11967563 3.14453125 105.7734375 C2.09446899 105.01208496 2.09446899 105.01208496 1.02319336 104.23535156 C0.29366455 103.70393555 -0.43586426 103.17251953 -1.1875 102.625 C-6.68574925 98.69603884 -6.68574925 98.69603884 -13.0546875 96.9296875 C-15.51644268 97.48952591 -17.68199279 98.25903038 -20 99.25 C-35.72994076 101.91609165 -50.94474887 101.2113277 -64.25 92 C-70.7369749 85.5130251 -72.4863371 77.386629 -73.375 68.5 C-73.20841389 62.51479914 -70.93154289 56.85345208 -69 51.25 C-68.65324219 50.23679688 -68.30648437 49.22359375 -67.94921875 48.1796875 C-66.24795935 43.35835776 -64.43192667 38.74906435 -62 34.25 C-61.34 34.25 -60.68 34.25 -60 34.25 C-59.6596875 33.1671875 -59.6596875 33.1671875 -59.3125 32.0625 C-57.73073192 28.67299697 -55.7009863 26.82535903 -53 24.25 C-52.26394531 23.3115625 -51.52789062 22.373125 -50.76953125 21.40625 C-47.93571077 17.97782622 -44.70672461 15.60813982 -41 13.1875 C-40.34499512 12.75630859 -39.68999023 12.32511719 -39.01513672 11.88085938 C-30.28535546 6.30964488 -21.10192834 3.27038567 -11 1.25 C-8.68092078 -1.06907922 -3.10909439 0.01682866 0 0 Z M-27 35.25 C-27 35.91 -27 36.57 -27 37.25 C-27.99 37.58 -28.98 37.91 -30 38.25 C-30 38.91 -30 39.57 -30 40.25 C-30.66 40.25 -31.32 40.25 -32 40.25 C-36.04583465 47.64677404 -39.70461608 54.47426881 -38.4375 63.0625 C-36.53460102 67.28197166 -34.08203314 69.20898343 -30 71.25 C-21.13541398 72.17434145 -14.86541266 70.33538364 -7.4375 65.625 C-6.963125 65.17125 -6.48875 64.7175 -6 64.25 C-6 63.59 -6 62.93 -6 62.25 C-5.01 61.92 -4.02 61.59 -3 61.25 C1.42702121 54.27448586 4.74479194 46.59166974 4 38.25 C2.76904667 34.88107509 1.61260063 32.82431309 -1 30.375 C-9.5276496 27.1771314 -20.30851653 28.83732834 -27 35.25 Z " fill="#060606" transform="translate(107,35.75)"/>
<path d="M0 0 C0.66 0 1.32 0 2 0 C3.51045795 11.64980865 4.80596286 23.31367908 6 35 C13.1482532 27.20848399 13.1482532 27.20848399 18 18 C18.66 18 19.32 18 20 18 C20 17.01 20 16.02 20 15 C20.66 15 21.32 15 22 15 C22.20625 14.319375 22.4125 13.63875 22.625 12.9375 C24.4927082 8.94739611 26.46486093 5.7094424 30 3 C33.50367933 2.1611571 36.79800593 2.33032706 40.375 2.5625 C41.30183594 2.59408203 42.22867188 2.62566406 43.18359375 2.65820312 C45.45904237 2.74030694 47.72783746 2.85500225 50 3 C47.99015711 7.29231432 45.70360758 10.93673565 42.8125 14.6875 C42.0184375 15.7290625 41.224375 16.770625 40.40625 17.84375 C39.6121875 18.8853125 38.818125 19.926875 38 21 C33.53538938 27.01751867 29.20787196 33.06789137 25.2265625 39.41796875 C24.82179688 39.94003906 24.41703125 40.46210937 24 41 C23.34 41 22.68 41 22 41 C22 41.99 22 42.98 22 44 C21.34 44 20.68 44 20 44 C19.34 45.65 18.68 47.3 18 49 C17.34 49 16.68 49 16 49 C16 49.99 16 50.98 16 52 C15.34 52 14.68 52 14 52 C13.71125 52.763125 13.4225 53.52625 13.125 54.3125 C12 57 12 57 10 60 C9.34 60 8.68 60 8 60 C7.75121094 60.7115625 7.50242187 61.423125 7.24609375 62.15625 C5.86273526 65.31325621 4.13626017 67.75043344 2.0625 70.5 C0.00657121 73.23611457 -1.92697373 75.87251049 -3.62890625 78.84375 C-4.08136719 79.5553125 -4.53382813 80.266875 -5 81 C-5.66 81 -6.32 81 -7 81 C-7 81.66 -7 82.32 -7 83 C-7.99 82.67 -8.98 82.34 -10 82 C-10.08564209 81.19892822 -10.17128418 80.39785645 -10.25952148 79.57250977 C-10.65199062 75.90248612 -11.04474317 72.23249286 -11.4375 68.5625 C-11.57220703 67.30244141 -11.70691406 66.04238281 -11.84570312 64.74414062 C-12.10921274 62.28257516 -12.37398981 59.82114499 -12.64013672 57.35986328 C-12.86170378 55.29120259 -13.07803045 53.22196306 -13.28564453 51.15185547 C-13.63058419 46.94300135 -13.63058419 46.94300135 -15 43 C-15.61875 43.99 -16.2375 44.98 -16.875 46 C-17.926875 47.485 -17.926875 47.485 -19 49 C-19.66 49 -20.32 49 -21 49 C-21.2578125 49.56203125 -21.515625 50.1240625 -21.78125 50.703125 C-23.14169777 53.26704579 -24.72788962 55.45226365 -26.5 57.75 C-27.1084375 58.54921875 -27.716875 59.3484375 -28.34375 60.171875 C-28.8903125 60.77515625 -29.436875 61.3784375 -30 62 C-30.66 62 -31.32 62 -32 62 C-32 62.99 -32 63.98 -32 65 C-33.62339805 66.70884005 -35.29319053 68.37446717 -37 70 C-37.66 70.99 -38.32 71.98 -39 73 C-39.66 73 -40.32 73 -41 73 C-41 73.66 -41 74.32 -41 75 C-41.66 75 -42.32 75 -43 75 C-43 75.99 -43 76.98 -43 78 C-43.66 78 -44.32 78 -45 78 C-45.66 79.65 -46.32 81.3 -47 83 C-47.99 83 -48.98 83 -50 83 C-50.87349817 78.49039434 -51.12654242 74.22398932 -51.12939453 69.63354492 C-51.13114685 68.9222644 -51.13289917 68.21098389 -51.13470459 67.47814941 C-51.13907835 65.14556382 -51.13620256 62.81305501 -51.1328125 60.48046875 C-51.13348645 58.85476161 -51.13445724 57.22905457 -51.13571167 55.60334778 C-51.13718225 52.20666539 -51.13505327 48.81000939 -51.13037109 45.41333008 C-51.1246514 41.05063645 -51.12797094 36.68800404 -51.13394356 32.32531261 C-51.13754709 28.97371453 -51.13641195 25.62213112 -51.13381577 22.27053261 C-51.13314709 20.66090195 -51.13397285 19.05126998 -51.13629532 17.44164085 C-51.13882088 15.2008851 -51.13498371 12.96023059 -51.12939453 10.71948242 C-51.12859894 9.4429631 -51.12780334 8.16644379 -51.12698364 6.85124207 C-51 4 -51 4 -50 3 C-48.5112814 2.91330568 -47.018555 2.89296506 -45.52734375 2.90234375 C-44.62822266 2.90556641 -43.72910156 2.90878906 -42.80273438 2.91210938 C-41.85720703 2.92048828 -40.91167969 2.92886719 -39.9375 2.9375 C-38.98810547 2.94201172 -38.03871094 2.94652344 -37.06054688 2.95117188 C-34.70696935 2.9629989 -32.35351523 2.97947975 -30 3 C-29.06912091 6.93288364 -28.88391115 10.57654163 -28.90234375 14.61328125 C-28.90556641 15.86044922 -28.90878906 17.10761719 -28.91210938 18.39257812 C-28.92048828 19.68615234 -28.92886719 20.97972656 -28.9375 22.3125 C-28.94201172 23.62541016 -28.94652344 24.93832031 -28.95117188 26.29101562 C-28.96294051 29.5273901 -28.9793824 32.76367178 -29 36 C-28.54625 35.175 -28.0925 34.35 -27.625 33.5 C-27.08875 32.675 -26.5525 31.85 -26 31 C-25.34 31 -24.68 31 -24 31 C-23.7421875 30.43796875 -23.484375 29.8759375 -23.21875 29.296875 C-21.85830223 26.73295421 -20.27211038 24.54773635 -18.5 22.25 C-17.8915625 21.45078125 -17.283125 20.6515625 -16.65625 19.828125 C-16.1096875 19.22484375 -15.563125 18.6215625 -15 18 C-14.34 18 -13.68 18 -13 18 C-13 17.01 -13 16.02 -13 15 C-12.34 15 -11.68 15 -11 15 C-11 14.34 -11 13.68 -11 13 C-10.34 13 -9.68 13 -9 13 C-9 12.01 -9 11.02 -9 10 C-8.34 10 -7.68 10 -7 10 C-6.773125 9.46375 -6.54625 8.9275 -6.3125 8.375 C-4.54429911 5.17539839 -2.46329797 2.70962777 0 0 Z " fill="#0C0C0C" transform="translate(339,42)"/>
<path d="M0 0 C1.4540625 0.7734375 1.4540625 0.7734375 2.9375 1.5625 C3.9275 2.0575 3.9275 2.0575 4.9375 2.5625 C8.48407733 8.878666 9.889916 14.53871415 7.9375 21.5625 C6.78221111 24.66327537 5.43231101 27.61236356 3.9375 30.5625 C3.56496094 31.30886719 3.19242187 32.05523437 2.80859375 32.82421875 C2.52113281 33.39785156 2.23367188 33.97148438 1.9375 34.5625 C1.2775 34.5625 0.6175 34.5625 -0.0625 34.5625 C-0.43375 35.42875 -0.43375 35.42875 -0.8125 36.3125 C-4.20781783 42.4240721 -10.55911482 46.17744074 -16.91796875 48.69140625 C-20.24014501 49.61171098 -23.05759894 49.8626024 -26.5 49.875 C-27.57121094 49.89175781 -28.64242187 49.90851563 -29.74609375 49.92578125 C-33.73564325 49.48876346 -36.45658136 48.29024104 -40.0625 46.5625 C-41.20952187 49.49953729 -42.3549112 52.43720857 -43.5 55.375 C-43.82548828 56.20837891 -44.15097656 57.04175781 -44.48632812 57.90039062 C-44.79892578 58.70283203 -45.11152344 59.50527344 -45.43359375 60.33203125 C-45.72161865 61.07042236 -46.00964355 61.80881348 -46.30639648 62.56958008 C-46.93221645 64.21910167 -47.5045957 65.88878709 -48.0625 67.5625 C-54.0025 67.5625 -59.9425 67.5625 -66.0625 67.5625 C-61.443415 53.38892 -56.51649426 39.35417368 -51.32617188 25.37988281 C-50.16324782 22.24716888 -49.00713024 19.11199652 -47.8515625 15.9765625 C-47.11237201 13.97902125 -46.37280391 11.98161968 -45.6328125 9.984375 C-45.28807892 9.04922058 -44.94334534 8.11406616 -44.58816528 7.15057373 C-44.27048187 6.2974762 -43.95279846 5.44437866 -43.62548828 4.56542969 C-43.34681915 3.81380554 -43.06815002 3.0621814 -42.78103638 2.28778076 C-42.0625 0.5625 -42.0625 0.5625 -41.0625 -0.4375 C-38.4475232 -0.53796239 -35.86470911 -0.57622551 -33.25 -0.5625 C-32.52490234 -0.56636719 -31.79980469 -0.57023437 -31.05273438 -0.57421875 C-27.54540269 -0.56780094 -24.44335855 -0.32677796 -21.0625 0.5625 C-20.216875 0.253125 -19.37125 -0.05625 -18.5 -0.375 C-12.47018679 -2.23876045 -5.88842481 -2.51305159 0 0 Z M-28.0625 16.5625 C-28.0625 17.2225 -28.0625 17.8825 -28.0625 18.5625 C-28.7225 18.5625 -29.3825 18.5625 -30.0625 18.5625 C-30.0625 19.2225 -30.0625 19.8825 -30.0625 20.5625 C-30.7225 20.5625 -31.3825 20.5625 -32.0625 20.5625 C-34.00978567 25.49255165 -34.00978567 25.49255165 -32.8125 30.4375 C-31.23595497 32.64499688 -31.23595497 32.64499688 -29.0625 33.5625 C-23.5485826 33.93009449 -19.69217505 33.9295364 -15.0625 30.5625 C-12.16376412 26.67416547 -11.0625 23.55101415 -11.0625 18.6875 C-11.76311643 15.58043695 -11.76311643 15.58043695 -13.6875 14.125 C-19.24548367 12.80863545 -23.48859451 12.95881689 -28.0625 16.5625 Z " fill="#070707" transform="translate(270.0625,74.4375)"/>
<path d="M0 0 C0.72896484 -0.01611328 1.45792969 -0.03222656 2.20898438 -0.04882812 C7.72393338 -0.05379208 11.68019299 1.16792788 16.125 4.625 C18.74850965 7.99808384 20.54315815 10.49192886 20.28515625 14.9375 C19.37282481 20.48688791 18.02468326 24.13813349 15.4375 29.3125 C4.2175 29.6425 -7.0025 29.9725 -18.5625 30.3125 C-18.5625 30.9725 -18.5625 31.6325 -18.5625 32.3125 C-14.79036948 34.82725368 -13.04214158 34.76046416 -8.5625 34.3125 C-6.92394495 33.28438703 -5.28600164 32.25512748 -3.66015625 31.20703125 C1.47466457 29.01732181 8.23369302 29.57789767 13.4375 31.3125 C12.94708959 35.6507459 11.75113192 37.50097653 8.5 40.375 C7.43458984 41.35146484 7.43458984 41.35146484 6.34765625 42.34765625 C-1.38825985 47.57069759 -8.66197171 48.94521796 -17.875 48.75 C-18.83728516 48.75708984 -19.79957031 48.76417969 -20.79101562 48.77148438 C-29.59320573 48.69229512 -29.59320573 48.69229512 -33.5625 45.3125 C-36.64329836 41.57023611 -38.46566659 37.15417028 -38.5625 32.3125 C-36.56369259 21.792461 -30.83406893 12.25105094 -22.0625 6.1875 C-14.89049446 1.43517594 -8.43516831 -0.03748964 0 0 Z M-12.5625 16.3125 C-9.64597826 16.47931109 -9.64597826 16.47931109 -6.5625 16.3125 C-5.9025 15.6525 -5.2425 14.9925 -4.5625 14.3125 C-8.27849191 14.11163557 -9.33458445 14.1605563 -12.5625 16.3125 Z M-2.5625 14.3125 C-1.9025 14.9725 -1.2425 15.6325 -0.5625 16.3125 C-0.5625 15.6525 -0.5625 14.9925 -0.5625 14.3125 C-1.2225 14.3125 -1.8825 14.3125 -2.5625 14.3125 Z M-14.5625 16.3125 C-14.8925 16.9725 -15.2225 17.6325 -15.5625 18.3125 C-9.9525 18.3125 -4.3425 18.3125 1.4375 18.3125 C-0.47656662 15.95608476 -0.47656662 15.95608476 -3.8203125 16.1171875 C-5.73457031 16.15199219 -5.73457031 16.15199219 -7.6875 16.1875 C-8.96882813 16.20554687 -10.25015625 16.22359375 -11.5703125 16.2421875 C-12.55773437 16.26539062 -13.54515625 16.28859375 -14.5625 16.3125 Z " fill="#0B0B0B" transform="translate(461.5625,75.6875)"/>
<path d="M0 0 C2.70108504 0.090916 5.36930311 0.23740766 8.0625 0.4375 C9.20041992 0.51581055 9.20041992 0.51581055 10.36132812 0.59570312 C12.24121722 0.72575835 14.12065685 0.86228038 16 1 C15.6918335 1.89831543 15.38366699 2.79663086 15.06616211 3.72216797 C13.92897672 7.04863448 12.79852597 10.37723094 11.67260742 13.70751953 C11.1834394 15.14984225 10.69158565 16.59125695 10.19702148 18.03173828 C9.48758256 20.09957129 8.78779073 22.17045191 8.08984375 24.2421875 C7.66566162 25.4885498 7.24147949 26.73491211 6.80444336 28.01904297 C5.67276663 30.89953551 5.67276663 30.89953551 7 33 C10.63 33 14.26 33 18 33 C18 32.34 18 31.68 18 31 C18.66 31 19.32 31 20 31 C20.144375 30.071875 20.28875 29.14375 20.4375 28.1875 C21 25 21 25 22 22 C22.66 22 23.32 22 24 22 C23.95875 21.29875 23.9175 20.5975 23.875 19.875 C24.01668332 16.61628372 24.86734686 14.0440053 26 11 C26.66 11 27.32 11 28 11 C27.979375 10.236875 27.95875 9.47375 27.9375 8.6875 C28 6 28 6 29 3 C29.66 3 30.32 3 31 3 C31 2.34 31 1.68 31 1 C36.61 1 42.22 1 48 1 C43.57647544 13.88146734 39.13458855 26.75515783 34.5 39.5625 C34.16226563 40.50109863 33.82453125 41.43969727 33.4765625 42.40673828 C33.16460937 43.26380371 32.85265625 44.12086914 32.53125 45.00390625 C32.12229492 46.13034546 32.12229492 46.13034546 31.70507812 47.27954102 C31 49 31 49 30 50 C27.30345146 50.07319621 24.63308542 50.09242537 21.9375 50.0625 C20.79958008 50.05573242 20.79958008 50.05573242 19.63867188 50.04882812 C17.75908129 50.0370068 15.87953101 50.01907078 14 50 C14 49.01 14 48.02 14 47 C13.113125 47.474375 12.22625 47.94875 11.3125 48.4375 C4.97296607 51.42784619 -1.00764861 51.94757794 -7.75 49.8125 C-11.33020417 47.81584767 -12.53420051 46.79383397 -14 43 C-14.44395796 37.21465889 -13.23972935 32.98554546 -11.19140625 27.6953125 C-10.90522934 26.93072723 -10.61905243 26.16614197 -10.32420349 25.37838745 C-9.41429416 22.95641267 -8.48834601 20.54092084 -7.5625 18.125 C-6.94367061 16.47953897 -6.32582193 14.83370875 -5.70898438 13.1875 C-5.12067514 11.62727075 -4.53151282 10.06736285 -3.94140625 8.5078125 C-3.52260948 7.40012009 -3.52260948 7.40012009 -3.09535217 6.27005005 C-1.11853512 1.11853512 -1.11853512 1.11853512 0 0 Z " fill="#060606" transform="translate(152,73)"/>
<path d="M0 0 C0.76183594 -0.01417969 1.52367187 -0.02835937 2.30859375 -0.04296875 C4.79597315 0.21137334 6.41058106 0.94732804 8.5625 2.1875 C8.25680625 8.30137503 5.2312948 11.62340248 1.5625 16.1875 C0.9025 17.1775 0.2425 18.1675 -0.4375 19.1875 C-1.16195312 19.06890625 -1.88640625 18.9503125 -2.6328125 18.828125 C-7.27809603 18.20875386 -10.51676903 17.82578426 -14.9375 19.5625 C-18.26514673 23.05652907 -19.31141024 26.56460519 -20.4375 31.1875 C-21.0975 31.1875 -21.7575 31.1875 -22.4375 31.1875 C-22.39625 31.88875 -22.355 32.59 -22.3125 33.3125 C-22.45418332 36.57121628 -23.30484686 39.1434947 -24.4375 42.1875 C-25.0975 42.1875 -25.7575 42.1875 -26.4375 42.1875 C-26.581875 42.991875 -26.72625 43.79625 -26.875 44.625 C-27.4375 47.1875 -27.4375 47.1875 -28.4375 48.1875 C-30.96799402 48.26063567 -33.47054837 48.27997527 -36 48.25 C-37.06637695 48.24323242 -37.06637695 48.24323242 -38.15429688 48.23632812 C-39.91540013 48.22450864 -41.67646036 48.20657263 -43.4375 48.1875 C-40.93661957 39.34445876 -37.84299472 30.74170835 -34.71191406 22.10717773 C-33.8037781 19.60092955 -32.90165637 17.09256998 -32 14.58398438 C-31.4248346 12.99205904 -30.84932654 11.40025745 -30.2734375 9.80859375 C-29.86875748 8.68220741 -29.86875748 8.68220741 -29.4559021 7.5330658 C-27.5524466 2.3024466 -27.5524466 2.3024466 -26.4375 1.1875 C-23.90700598 1.11436433 -21.40445163 1.09502473 -18.875 1.125 C-18.16408203 1.12951172 -17.45316406 1.13402344 -16.72070312 1.13867188 C-14.95959987 1.15049136 -13.19853964 1.16842737 -11.4375 1.1875 C-11.4375 2.1775 -11.4375 3.1675 -11.4375 4.1875 C-10.839375 3.713125 -10.24125 3.23875 -9.625 2.75 C-6.43433272 0.47095194 -3.8239751 0.03224262 0 0 Z " fill="#090909" transform="translate(425.4375,75.8125)"/>
<path d="M0 0 C1.48831242 0.00667405 2.97660807 0.01863442 4.46484375 0.03515625 C5.22345703 0.03966797 5.98207031 0.04417969 6.76367188 0.04882812 C8.64326246 0.06064945 10.52281274 0.07858547 12.40234375 0.09765625 C11.74462949 5.77605889 9.81645311 10.78297065 7.8046875 16.08984375 C7.45096573 17.035784 7.09724396 17.98172424 6.73280334 18.95632935 C5.60690434 21.9637084 4.473491 24.9681905 3.33984375 27.97265625 C2.57306945 30.01674025 1.80678784 32.06100913 1.04101562 34.10546875 C-0.83284081 39.10502445 -2.7134395 44.10199639 -4.59765625 49.09765625 C-10.20765625 49.09765625 -15.81765625 49.09765625 -21.59765625 49.09765625 C-17.73323322 37.99063907 -13.8356985 26.89523381 -9.89837646 15.81384277 C-9.44738643 14.54328192 -8.99739655 13.27236563 -8.54840088 12.00109863 C-7.91392211 10.205488 -7.27540849 8.41130463 -6.63671875 6.6171875 C-6.26756348 5.57667236 -5.8984082 4.53615723 -5.51806641 3.46411133 C-4.21523591 0.11442008 -4.21523591 0.11442008 0 0 Z " fill="#080808" transform="translate(209.59765625,73.90234375)"/>
<path d="M0 0 C4.95 0 9.9 0 15 0 C16.14771322 3.44313965 15.85903495 4.09454887 14.64477539 7.37963867 C14.32436783 8.26032516 14.00396027 9.14101166 13.67384338 10.04838562 C13.31870163 10.99534805 12.96355988 11.94231049 12.59765625 12.91796875 C12.24110458 13.89034988 11.88455292 14.86273102 11.51719666 15.86457825 C10.37424145 18.97546962 9.21854538 22.08145232 8.0625 25.1875 C7.28626685 27.29330942 6.51086549 29.39942564 5.73632812 31.50585938 C3.83385926 36.67418507 1.9199491 41.83814376 0 47 C-5.61 47 -11.22 47 -17 47 C-16.34 43.7 -15.68 40.4 -15 37 C-14.34 37 -13.68 37 -13 37 C-12.34 33.37 -11.68 29.74 -11 26 C-10.34 26 -9.68 26 -9 26 C-8.34 22.37 -7.68 18.74 -7 15 C-6.34 15 -5.68 15 -5 15 C-4.34 11.37 -3.68 7.74 -3 4 C-2.34 4 -1.68 4 -1 4 C-0.67 2.68 -0.34 1.36 0 0 Z " fill="#030303" transform="translate(376,77)"/>
<path d="M0 0 C2.61564153 1.34135463 3.6644529 2.10958172 4.69921875 4.85546875 C5.07043702 7.50220681 4.57121576 8.69289702 3.375 11.0625 C2.89160156 12.06990234 2.89160156 12.06990234 2.3984375 13.09765625 C0.54426819 15.61994802 -1.16473851 16.67741725 -4 18 C-7.04296875 18.3984375 -7.04296875 18.3984375 -10.1875 18.375 C-11.75564453 18.38660156 -11.75564453 18.38660156 -13.35546875 18.3984375 C-14.22816406 18.26695313 -15.10085937 18.13546875 -16 18 C-18.21832315 14.67251528 -18.32669133 12.97739627 -17.75 9.0703125 C-15.04469744 1.60255023 -7.19035469 -0.79734626 0 0 Z " fill="#141414" transform="translate(226,51)"/>
<path d="M0 0 C2.125 1.625 2.125 1.625 3 4 C2.77888305 9.1962484 1.0526531 13.0455376 -2.71484375 16.6328125 C-5.71276059 18.42643796 -7.7842772 18.3005127 -11.25 18.1875 C-12.86648438 18.14689453 -12.86648438 18.14689453 -14.515625 18.10546875 C-15.33546875 18.07066406 -16.1553125 18.03585938 -17 18 C-19.20825148 13.26452737 -18.74274326 10.93777258 -17 6 C-16.34 6 -15.68 6 -15 6 C-14.67 5.01 -14.34 4.02 -14 3 C-9.80615985 -0.53855263 -5.26158964 -0.9005413 0 0 Z " fill="#0F0F0F" transform="translate(396,56)"/>
<path d="M0 0 C1.9375 1.6875 1.9375 1.6875 3 4 C3.1875 6.75 3.1875 6.75 3 9 C1.35 9 -0.3 9 -2 9 C-2.66 7.68 -3.32 6.36 -4 5 C-4.33 10.61 -4.66 16.22 -5 22 C-4.01 22 -3.02 22 -2 22 C-2 19.69 -2 17.38 -2 15 C-2.66 15 -3.32 15 -4 15 C-4 13.68 -4 12.36 -4 11 C-1.69 11 0.62 11 3 11 C3.08142927 12.7492214 3.13938541 14.49954542 3.1875 16.25 C3.22230469 17.22453125 3.25710938 18.1990625 3.29296875 19.203125 C2.95492925 22.43027538 2.30787 23.74494167 0 26 C-5.98060535 26.74757567 -5.98060535 26.74757567 -8.69384766 24.7578125 C-10.35893853 22.51694255 -10.38674759 21.21190449 -10.3984375 18.4375 C-10.40230469 17.55835938 -10.40617187 16.67921875 -10.41015625 15.7734375 C-10.39855469 14.85820312 -10.38695312 13.94296875 -10.375 13 C-10.39240234 11.62714844 -10.39240234 11.62714844 -10.41015625 10.2265625 C-10.40628906 9.34742188 -10.40242188 8.46828125 -10.3984375 7.5625 C-10.39336182 6.35787109 -10.39336182 6.35787109 -10.38818359 5.12890625 C-9.34283987 -0.604048 -5.06468904 -0.63308613 0 0 Z " fill="#000000" transform="translate(448,147)"/>
<path d="M0 0 C1.65 0 3.3 0 5 0 C5 3.63 5 7.26 5 11 C6.32 11 7.64 11 9 11 C9 7.37 9 3.74 9 0 C10.32 0 11.64 0 13 0 C13 8.58 13 17.16 13 26 C11.68 26 10.36 26 9 26 C9 22.37 9 18.74 9 15 C7.68 15 6.36 15 5 15 C5 18.63 5 22.26 5 26 C3.35 26 1.7 26 0 26 C0 17.42 0 8.84 0 0 Z " fill="#000000" transform="translate(453,147)"/>
<path d="M0 0 C1.65 0 3.3 0 5 0 C5 7.26 5 14.52 5 22 C6.98 22 8.96 22 11 22 C11 23.32 11 24.64 11 26 C7.37 26 3.74 26 0 26 C0 17.42 0 8.84 0 0 Z " fill="#000000" transform="translate(417,147)"/>
<path d="M0 0 C4.29 0 8.58 0 13 0 C13 1.32 13 2.64 13 4 C11.35 4 9.7 4 8 4 C8 11.26 8 18.52 8 26 C6.68 26 5.36 26 4 26 C4 18.74 4 11.48 4 4 C2.68 4 1.36 4 0 4 C0 2.68 0 1.36 0 0 Z " fill="#000000" transform="translate(469,147)"/>
<path d="M0 0 C1.65 0 3.3 0 5 0 C5 8.58 5 17.16 5 26 C3.35 26 1.7 26 0 26 C0 17.42 0 8.84 0 0 Z " fill="#000000" transform="translate(430,147)"/>
<path d="M0 0 C0.99 0.33 1.98 0.66 3 1 C3.33 1.99 3.66 2.98 4 4 C3 5 3 5 1.14233398 5.11352539 C0.35157471 5.10828857 -0.43918457 5.10305176 -1.25390625 5.09765625 C-2.10791016 5.09443359 -2.96191406 5.09121094 -3.84179688 5.08789062 C-4.73962891 5.07951172 -5.63746094 5.07113281 -6.5625 5.0625 C-7.46419922 5.05798828 -8.36589844 5.05347656 -9.29492188 5.04882812 C-11.53001314 5.03700225 -13.76497437 5.0205222 -16 5 C-15.67 4.34 -15.34 3.68 -15 3 C-9.72 3 -4.44 3 1 3 C0.67 2.01 0.34 1.02 0 0 Z " fill="#6F6F6F" transform="translate(461,90)"/>
</svg>
